<svg width="20" height="22" viewBox="0 0 20 22" fill="none" xmlns="http://www.w3.org/2000/svg">
<path d="M9.91489 0C8.30124 0 6.98828 1.31296 6.98828 2.92661V3.80962H8.50203V2.92661C8.50203 2.14754 9.13604 1.51375 9.91489 1.51375C10.694 1.51375 11.328 2.1475 11.328 2.92661V3.80962H12.8418V2.92661C12.8418 1.31296 11.5286 0 9.91489 0Z" fill="#EB5757"/>
<path d="M11.9834 18.4419C11.9834 19.5689 11.0666 20.4857 9.93983 20.4857H9.88938C8.76265 20.4857 7.84578 19.5689 7.84578 18.4419H6.33203C6.33203 20.4037 7.92781 21.9995 9.88938 21.9995H9.93983C11.9014 21.9995 13.4972 20.4037 13.4972 18.4419H11.9834Z" fill="#EB5757"/>
<path d="M19.7099 18.159L17.5596 14.8138V10.52C17.5596 6.26305 14.1302 2.7998 9.91512 2.7998C5.69979 2.7998 2.27062 6.26305 2.27062 10.52V14.8138L0.120327 18.1587C-0.029548 18.3916 -0.0401183 18.6878 0.0925695 18.9307C0.225257 19.1737 0.479848 19.3251 0.756868 19.3251H19.0734C19.3504 19.3251 19.605 19.1737 19.7375 18.931C19.8704 18.6881 19.8598 18.3919 19.7099 18.159ZM2.14317 17.8113L3.66401 15.4453C3.74247 15.3235 3.78437 15.1811 3.78437 15.0361V10.52C3.78437 7.09789 6.53463 4.3136 9.91512 4.3136C13.2959 4.3136 16.0459 7.09794 16.0459 10.52V15.0361C16.0459 15.1811 16.0875 15.3232 16.166 15.4453L17.6868 17.8113H2.14317Z" fill="#EB5757"/>
</svg>
