<svg width="22" height="22" viewBox="0 0 22 22" fill="none" xmlns="http://www.w3.org/2000/svg">
<path d="M12.1794 8.07031H9.78516V10.3236H12.1794C12.8026 10.3236 13.3095 9.8182 13.3095 9.19696C13.3095 8.57572 12.8026 8.07031 12.1794 8.07031Z" fill="#EB5757"/>
<path d="M12.1794 11.6074H9.78516V13.8607H12.1794C12.8026 13.8607 13.3095 13.3553 13.3095 12.7341C13.3095 12.1128 12.8026 11.6074 12.1794 11.6074Z" fill="#EB5757"/>
<path d="M18.7782 3.21178C16.7005 1.14066 13.9382 0 11 0C8.0618 0 5.29947 1.14066 3.2218 3.21178C1.14421 5.28298 0 8.03673 0 10.9658C0 13.8949 1.14421 16.6486 3.2218 18.7198C5.29947 20.7909 8.0618 21.9316 11 21.9316C13.9382 21.9316 16.7005 20.7909 18.7782 18.7198C20.8558 16.6486 22 13.8949 22 10.9658C22 8.03673 20.8558 5.28298 18.7782 3.21178ZM11 20.3266C5.82231 20.3266 1.61 16.1274 1.61 10.9658C1.61 5.8042 5.82231 1.60499 11 1.60499C16.1777 1.60499 20.39 5.8042 20.39 10.9658C20.39 16.1274 16.1777 20.3266 11 20.3266Z" fill="#EB5757"/>
<path d="M10.9994 2.89062C6.53252 2.89062 2.89844 6.5134 2.89844 10.9664C2.89844 15.4193 6.53252 19.0421 10.9994 19.0421C15.4662 19.0421 19.1003 15.4193 19.1003 10.9664C19.1003 6.5134 15.4662 2.89062 10.9994 2.89062ZM14.5985 12.7355C14.5985 13.8009 13.9017 14.7066 12.9387 15.0248V16.0353H11.6496V15.1472H10.8639V16.0353H9.57487V15.1472H8.49602V11.6089V10.3238V6.78549H9.57487V5.89748H10.8639V6.78549H11.6496V5.89748H12.9387V6.90791C13.9017 7.22622 14.5985 8.13184 14.5985 9.19719C14.5985 9.89571 14.2987 10.5255 13.8211 10.9664C14.2987 11.4072 14.5985 12.037 14.5985 12.7355Z" fill="#EB5757"/>
</svg>
