<svg width="32" height="31" viewBox="0 0 32 31" fill="none" xmlns="http://www.w3.org/2000/svg">
<path d="M0.511914 30.1993C1.2021 29.501 1.75112 28.4535 2.16726 27.1645C2.58558 25.8688 2.88106 24.2933 3.04099 22.5028L3.05735 22.3196L2.95112 22.1695C1.34414 19.8985 0.500043 17.2778 0.500043 14.5749C0.500043 6.85721 7.40886 0.5 16 0.5C24.5912 0.5 31.5 6.85721 31.5 14.5749C31.5 22.2926 24.5912 28.6498 16 28.6498C13.7899 28.6498 11.659 28.2354 9.65946 27.4189L9.43115 27.3257L9.2182 27.4501C5.68225 29.5159 0.754074 30.2379 0.536995 30.2688L0.536993 30.2688L0.533376 30.2694L0.532982 30.2694L0.533376 30.2692C0.523206 30.2692 0.511355 30.2631 0.505098 30.2503L0.504327 30.2487C0.496225 30.2323 0.499947 30.2114 0.511914 30.1993ZM0.511914 30.1993L0.156327 29.8478L0.511991 30.1992C0.511965 30.1992 0.51194 30.1992 0.511914 30.1993ZM5.90003 14.5749C5.90003 16.0362 7.07502 17.2341 8.53337 17.2341C9.99171 17.2341 11.1667 16.0362 11.1667 14.5749C11.1667 13.1136 9.99171 11.9157 8.53337 11.9157C7.07502 11.9157 5.90003 13.1136 5.90003 14.5749ZM13.3667 14.5749C13.3667 16.0362 14.5417 17.2341 16 17.2341C17.4584 17.2341 18.6334 16.0362 18.6334 14.5749C18.6334 13.1136 17.4584 11.9157 16 11.9157C14.5417 11.9157 13.3667 13.1136 13.3667 14.5749ZM20.8333 14.5749C20.8333 16.0362 22.0083 17.2341 23.4667 17.2341C24.925 17.2341 26.1 16.0362 26.1 14.5749C26.1 13.1136 24.925 11.9157 23.4667 11.9157C22.0083 11.9157 20.8333 13.1136 20.8333 14.5749Z" fill="white" stroke="#0085FF"/>
</svg>
