<svg width="20" height="18" viewBox="0 0 20 18" fill="none" xmlns="http://www.w3.org/2000/svg">
<path fill-rule="evenodd" clip-rule="evenodd" d="M18.0016 16.5368C18.3412 16.8716 18.3412 17.4144 18.0016 17.7491C17.8318 17.9164 17.6092 18 17.3868 18C17.1642 18 16.9418 17.9164 16.7718 17.7489L9.86272 10.9365L3.05251 17.7448C2.88251 17.9147 2.65794 18 2.43338 18C2.21294 18 1.99229 17.9179 1.82294 17.7531C1.48099 17.4208 1.47707 16.8782 1.81425 16.5411L8.63315 9.72424L7.47402 8.58123L7.28946 8.76338C6.73576 9.30917 5.99989 9.60981 5.21707 9.60981C4.43403 9.60981 3.69816 9.30917 3.14468 8.76338L0.257509 5.94315C-0.0835774 5.60993 -0.0861861 5.06736 0.251857 4.73093C0.5899 4.39471 1.14055 4.39214 1.48142 4.72536L4.37142 7.54859C4.59946 7.77316 4.89881 7.89552 5.21707 7.89552C5.53533 7.89552 5.83446 7.77316 6.05968 7.55137L6.24446 7.36901L2.52512 3.70171C2.18555 3.36699 2.18555 2.8242 2.52512 2.48949C2.86468 2.15499 3.41533 2.15499 3.75468 2.4897L7.47402 6.15679L7.68554 5.94808C8.15033 5.49015 8.15033 4.74443 7.68554 4.28628L4.79837 1.46584C4.45707 1.13284 4.45468 0.590048 4.79272 0.253832C5.13076 -0.082384 5.6812 -0.0849554 6.02229 0.248261L8.9125 3.07128C10.0577 4.20078 10.0577 6.03379 8.91533 7.1603L8.70359 7.36901L9.85402 8.50345L17.5158 0.843978C17.6784 0.681334 17.9001 0.58962 18.1318 0.588762C18.3557 0.584691 18.586 0.678334 18.7497 0.839692C20.6777 2.74063 20.3579 5.41772 17.9151 7.82609L14.9784 10.725C14.6392 11.0601 14.0888 11.0603 13.7488 10.7256C13.409 10.3911 13.4088 9.84853 13.7481 9.5136L16.6851 6.6143C18.4512 4.873 18.4077 3.57356 18.0316 2.76977L11.0836 9.71588L18.0016 16.5368Z" fill="#1F1F24"/>
</svg>
