<svg width="24" height="24" viewBox="0 0 24 24" fill="none" xmlns="http://www.w3.org/2000/svg">
<path fill-rule="evenodd" clip-rule="evenodd" d="M15.2591 20.48C16.1113 19.3358 17.0765 17.6994 17.6456 15.6396C18.8429 15.5331 19.7904 15.4098 20.4607 15.3081C19.5309 17.6774 17.6351 19.5637 15.2591 20.48ZM3.53702 15.3024C4.21065 15.4028 5.16407 15.5257 6.35231 15.6326C6.92144 17.6956 7.88776 19.3344 8.74074 20.48C6.36307 19.563 4.46605 17.6743 3.53702 15.3024ZM8.7957 3.49795C7.94104 4.65295 6.95774 6.3063 6.37307 8.359C5.16641 8.46589 4.21252 8.59024 3.53889 8.69211C4.47557 6.30439 6.39363 4.40641 8.7957 3.49795ZM20.4629 8.69784C19.7857 8.59693 18.8256 8.47306 17.6285 8.36593C17.0441 6.31013 16.0593 4.65439 15.204 3.49795C17.6077 4.40689 19.527 6.30726 20.4629 8.69784ZM17.9614 9.84137C19.3637 9.97935 20.3812 10.1338 20.9118 10.2233C21.0261 10.7981 21.0874 11.3919 21.0874 12C21.0874 12.6091 21.0261 13.204 20.9111 13.7801C20.3884 13.871 19.3821 14.0269 17.9677 14.1653C18.0777 13.4805 18.1415 12.7588 18.1415 12C18.1415 11.2467 18.0755 10.5267 17.9614 9.84137ZM12.7174 14.4408V9.55967C14.1089 9.57545 15.3715 9.63547 16.4751 9.7151C16.6198 10.4346 16.7063 11.1972 16.7063 12C16.7063 12.8083 16.6229 13.5718 16.4832 14.2899C15.3866 14.3676 14.1244 14.4257 12.7174 14.4408ZM11.2828 2.94389V8.12465C10.046 8.13733 8.9211 8.1818 7.9189 8.2435C8.83382 5.5112 10.4967 3.61274 11.134 2.95513C11.1833 2.95059 11.2333 2.94772 11.2828 2.94389ZM12.8676 2.95537C13.5063 3.61154 15.1723 5.50713 16.0858 8.24828C15.0757 8.18443 13.9475 8.13804 12.7174 8.12489V2.94389C12.7674 2.94796 12.8178 2.95059 12.8676 2.95537ZM7.29399 12C7.29399 11.1958 7.38127 10.4313 7.52762 9.7096C8.62164 9.63237 9.88042 9.57473 11.2829 9.55967V14.4406C9.8876 14.4248 8.62188 14.3645 7.51614 14.2846C7.37697 13.568 7.29399 12.8063 7.29399 12ZM2.91304 12C2.91304 11.3909 2.97426 10.796 3.08904 10.2204C3.61274 10.1293 4.62163 9.97289 6.03991 9.83419C5.92513 10.5217 5.85889 11.2441 5.85889 12C5.85889 12.7561 5.9225 13.4754 6.03154 14.1582C4.63287 14.0204 3.61824 13.8664 3.08857 13.777C2.97426 13.2021 2.91304 12.6081 2.91304 12ZM11.1219 21.0437C10.4806 20.4045 8.80116 18.5381 7.89462 15.7505C8.90972 15.8153 10.0444 15.8622 11.2829 15.8756V21.0559C11.2293 21.0518 11.1752 21.0487 11.1219 21.0437ZM12.8781 21.0437C12.8248 21.0487 12.771 21.0518 12.7174 21.0559V15.8756C13.9637 15.8629 15.0963 15.818 16.104 15.7553C15.1967 18.5409 13.5182 20.4059 12.8781 21.0437ZM12 1C5.9347 1 1 5.93446 1 12C1 18.0653 5.9347 23 12 23C18.0653 23 23 18.0653 23 12C23 5.93446 18.0653 1 12 1Z" fill="#EB5757"/>
</svg>
