<svg width="11" height="18" viewBox="0 0 11 18" fill="none" xmlns="http://www.w3.org/2000/svg">
<path fill-rule="evenodd" clip-rule="evenodd" d="M10.1495 4.5881C10.1495 2.0795 8.10541 0 5.55864 0C3.01187 0 0.934244 2.01348 0.900733 4.52208C0.900733 6.99767 2.97836 9.07717 5.49162 9.07717C8.03839 9.07717 10.1495 7.06369 10.1495 4.5881ZM7.98184 4.52375C7.98184 5.88606 6.88202 6.96157 5.52557 6.96157C4.16913 6.96157 3.06931 5.92191 3.06931 4.5596C3.03265 3.19729 4.13246 2.12179 5.52557 2.12179C6.88202 2.12179 7.98184 3.19729 7.98184 4.52375Z" fill="#1F1F24"/>
<path d="M8.70859 12.1469C9.47933 11.8498 10.1495 11.4207 10.7192 10.8596C11.0878 10.4965 11.0878 10.0344 10.7527 9.6053C10.4846 9.2092 10.049 9.01116 9.54635 9.14319C9.31178 9.2092 9.07721 9.30823 8.87614 9.47327C6.83203 10.8266 4.05069 10.7936 2.00657 9.40725C1.93955 9.34124 1.87253 9.30456 1.80551 9.26788C1.772 9.24955 1.73849 9.23121 1.70498 9.2092C1.1353 8.94514 0.599142 9.07717 0.264041 9.53928C-0.138081 10.1004 -0.0710607 10.5955 0.398081 11.0576C0.532121 11.1897 0.666162 11.2887 0.800203 11.3877C1.90604 12.2129 3.17942 12.576 4.58685 12.708L1.23583 16.0088C1.03477 16.2399 0.867223 16.4709 0.867223 16.768C0.833714 17.2301 1.1353 17.6592 1.57094 17.8903C2.00657 18.0883 2.4422 18.0223 2.81081 17.6592C3.21293 17.2631 3.61505 16.8588 4.01718 16.4544C4.4193 16.0501 4.82142 15.6457 5.22354 15.2496C5.4246 15.0516 5.52513 15.0186 5.7597 15.2496C6.27231 15.7765 6.79975 16.2888 7.33215 16.8059L7.33295 16.8067C7.60077 17.0668 7.86985 17.3282 8.13892 17.5932C8.33998 17.7913 8.57455 17.9233 8.87614 17.9563C9.34529 17.9893 9.84794 17.6922 10.049 17.2301C10.2501 16.801 10.183 16.3719 9.81443 16.0088L6.66448 12.9061C6.59747 12.8401 6.53042 12.774 6.42991 12.642C7.20064 12.543 8.00488 12.411 8.70859 12.1469Z" fill="#1F1F24"/>
</svg>
