<svg width="59" height="61" viewBox="0 0 59 61" fill="none" xmlns="http://www.w3.org/2000/svg">
<path d="M18.4375 0H0V19.0625H18.4375V0ZM14.75 15.25H3.6875V3.8125H14.75V15.25Z" fill="black"/>
<path d="M11.0625 7.625H7.375V11.4375H11.0625V7.625Z" fill="black"/>
<path d="M40.5625 0V19.0625H59V0H40.5625ZM55.3125 15.25H44.25V3.8125H55.3125V15.25Z" fill="black"/>
<path d="M51.625 7.625H47.9375V11.4375H51.625V7.625Z" fill="black"/>
<path d="M0 61H18.4375V41.9375H0V61ZM3.6875 45.75H14.75V57.1875H3.6875V45.75Z" fill="black"/>
<path d="M11.0625 49.5625H7.375V53.375H11.0625V49.5625Z" fill="black"/>
<path d="M36.875 0H29.5V3.8125H36.875V0Z" fill="black"/>
<path d="M29.5 15.25H33.1875V11.4375H36.875V7.625H25.8125V3.8125H22.125V7.625V9.53125V11.4375H29.5V15.25Z" fill="black"/>
<path d="M25.8125 15.25H22.125V19.0625H25.8125V15.25Z" fill="black"/>
<path d="M36.875 19.0625H33.1875V22.875H22.125V26.6875H36.875V19.0625Z" fill="black"/>
<path d="M3.6875 34.3125H7.375V30.5H3.6875V22.875H0V38.125H3.6875V34.3125Z" fill="black"/>
<path d="M11.0625 22.875H7.375V26.6875H11.0625V22.875Z" fill="black"/>
<path d="M22.125 38.125H29.5V34.3125H25.8125V30.5H18.4375V22.875H14.75V30.5H11.0625V38.125H14.75V34.3125H16.5938H18.4375H22.125V38.125Z" fill="black"/>
<path d="M36.875 30.5H33.1875V38.125H36.875V30.5Z" fill="black"/>
<path d="M33.1875 41.9375H22.125V45.75H29.5V57.1875H22.125V61H33.1875V57.1875H40.5625V53.375H33.1875V41.9375Z" fill="black"/>
<path d="M25.8125 49.5625H22.125V53.375H25.8125V49.5625Z" fill="black"/>
<path d="M40.5625 41.9375H36.875V49.5625H40.5625V41.9375Z" fill="black"/>
<path d="M55.3125 49.5625H44.25V61H47.9375V53.375H55.3125V49.5625Z" fill="black"/>
<path d="M59 57.1875H51.625V61H59V57.1875Z" fill="black"/>
<path d="M59 41.9375H55.3125V45.75H59V41.9375Z" fill="black"/>
<path d="M44.25 45.75H47.9375V34.3125H40.5625V38.125H44.25V45.75Z" fill="black"/>
<path d="M51.625 26.6875H47.9375V22.875H44.25V26.6875H40.5625V30.5H55.3125V26.6875H59V22.875H51.625V26.6875Z" fill="black"/>
<path d="M59 34.3125H51.625V38.125H59V34.3125Z" fill="black"/>
</svg>
