<svg width="15" height="16" viewBox="0 0 15 16" fill="none" xmlns="http://www.w3.org/2000/svg">
<path fill-rule="evenodd" clip-rule="evenodd" d="M11.6842 4.61856H12.7895V6.92783H15V8.08247H12.7895V10.3918H11.6842V7.91753H9.47368V6.92783H11.6842V4.61856ZM0 12.866C0 12.0412 0.31579 11.0515 1.57895 10.3918C2.56703 9.74662 3.74833 9.60612 4.66942 9.49658C4.92585 9.46608 5.16211 9.43798 5.36842 9.40206C4.89474 9.07217 4.57895 8.74227 4.57895 8.08247C4.57895 7.84097 4.66356 7.68787 4.77085 7.49374C4.81012 7.42268 4.85243 7.34613 4.89474 7.25773H4.26316C2.21053 7.25773 0.947368 5.60825 0.947368 3.95876C0.947368 2.96907 1.42105 1.97938 2.21053 1.15464C3.31579 0.164948 4.73684 0 5.68421 0H9.78947L8.52631 0.824742H7.26316C7.30367 0.867067 7.34765 0.911803 7.3942 0.959159L7.39429 0.959247C7.89206 1.46559 8.68421 2.27138 8.68421 3.62887C8.68421 5.1134 7.89474 5.93814 7.10526 6.59794C6.78947 6.92783 6.47368 7.25773 6.47368 7.58763C6.47368 7.99036 6.68285 8.17458 6.84584 8.31813C6.88312 8.35096 6.91798 8.38167 6.94737 8.41237L7.73684 9.07217L7.7876 9.11633L7.78761 9.11635C8.71225 9.92082 9.47368 10.5833 9.47368 12.0412C9.47368 14.0206 7.73684 16 4.26316 16C1.26316 15.8351 0 14.5155 0 12.866ZM4.42105 0.824728C6.15789 0.824728 6.94737 3.13401 6.94737 4.61854C6.94737 4.94844 6.94737 5.60823 6.47368 6.10308C6.15789 6.43298 5.68421 6.76287 5.21053 6.76287C3.47368 6.76287 2.68421 4.45359 2.68421 3.13401C2.68421 2.47421 2.68421 1.97937 3.15789 1.48452C3.47368 1.15462 3.94737 0.824728 4.42105 0.824728ZM5.36842 10.0618H5.84211C7.42105 11.2165 8.05263 11.7113 8.05263 12.701C8.05263 14.0206 7.10526 15.0103 5.21053 15.0103C3.1579 15.0103 1.73684 14.0206 1.73684 12.5361C1.73684 11.1657 2.81314 10.6387 3.2271 10.436C3.2616 10.4191 3.2915 10.4044 3.31579 10.3917C4.10526 10.0618 5.21053 10.0618 5.36842 10.0618Z" fill="#1F1F24"/>
</svg>
