<svg width="14" height="14" viewBox="0 0 14 14" fill="none" xmlns="http://www.w3.org/2000/svg">
<path fill-rule="evenodd" clip-rule="evenodd" d="M0 11.3033C0 12.7951 1.20493 14 2.69672 14H11.3033C12.7951 14 14 12.7951 14 11.3033V2.69671C14 1.20492 12.7951 0 11.3033 0H2.69672C1.20493 0 0 1.20492 0 2.69671V11.3033ZM12.3934 3.95903V1.60654H10.041V3.95903H12.3934ZM7 9.46724C8.37705 9.46724 9.46722 8.37708 9.46722 7C9.46722 6.48362 9.29508 5.96719 9.00819 5.56557C8.54918 4.93443 7.80328 4.53276 7 4.53276C6.19672 4.53276 5.45083 4.93443 4.9918 5.56557C4.70493 5.96719 4.53279 6.48362 4.53279 7C4.53279 8.37708 5.68033 9.46724 7 9.46724ZM12.6803 11.3033V5.56557H10.6148C10.7869 6.02459 10.9016 6.48362 10.9016 7C10.9016 9.12297 9.18033 10.8443 7.05738 10.8443C4.93443 10.8443 3.21312 9.12297 3.21312 7C3.21312 6.48362 3.32787 6.02459 3.5 5.56557H1.43443V11.3033C1.43443 12.0492 2.0082 12.623 2.7541 12.623H11.3607C12.0492 12.623 12.6803 12.0492 12.6803 11.3033Z" fill="white"/>
</svg>
