<svg width="16" height="9" viewBox="0 0 16 9" fill="none" xmlns="http://www.w3.org/2000/svg">
<path fill-rule="evenodd" clip-rule="evenodd" d="M14.2974 6.2476C14.1167 6.07792 13.9359 5.9082 13.7616 5.7353C13.2967 5.27415 13.2677 5.01478 13.6454 4.46718C14.0521 3.89078 14.4879 3.31436 14.9238 2.73796C14.9501 2.70257 14.9764 2.66729 15.0026 2.63209C15.3823 2.12268 15.7504 1.62872 15.9407 1.00872C16.0859 0.605234 15.9697 0.432303 15.5339 0.345862H15.3015H12.7737C12.4832 0.345862 12.3089 0.461142 12.1926 0.749327C12.1209 0.903492 12.0541 1.05766 11.9882 1.20983C11.8938 1.42747 11.8013 1.64098 11.6987 1.84452C11.292 2.6515 10.8561 3.42964 10.2169 4.09252C10.1978 4.11154 10.1786 4.13156 10.1592 4.15177C10.0318 4.28484 9.89573 4.42696 9.69396 4.3519C9.40342 4.23662 9.31625 3.7755 9.31625 3.60257V0.6917C9.25814 0.259397 9.17098 0.0864656 8.76423 0H6.12027C5.77161 0 5.56823 0.115279 5.39391 0.345862C5.27769 0.489955 5.24863 0.576421 5.48107 0.605234C5.91689 0.6917 6.17838 0.97991 6.23648 1.41221C6.32365 2.10391 6.32365 2.79559 6.26554 3.48729C6.23648 3.68903 6.20742 3.89078 6.12027 4.09252C5.97499 4.38073 5.77161 4.43836 5.51012 4.26545C5.27769 4.09252 5.10336 3.86197 4.92904 3.63138C4.28984 2.73796 3.79591 1.78689 3.38915 0.778166C3.27293 0.489955 3.06955 0.317024 2.74995 0.317024C2.49814 0.317024 2.24634 0.313831 1.99453 0.310637C1.49093 0.304226 0.987314 0.297815 0.483712 0.317024C0.0188405 0.317024 -0.0973868 0.547607 0.0769479 0.951072C0.919524 2.76678 1.84927 4.55364 3.0405 6.1676C3.65064 7.00339 4.377 7.72391 5.27769 8.24267C6.32365 8.84791 7.42772 9.02084 8.61895 8.96319C9.17098 8.93437 9.34531 8.79026 9.37436 8.24267C9.37436 7.868 9.43247 7.52216 9.6068 7.17632C9.81018 6.8593 10.0717 6.80165 10.3913 7.00339C10.5365 7.11867 10.6818 7.23395 10.798 7.37807C10.9087 7.49784 11.0159 7.61762 11.1221 7.73619C11.3224 7.95999 11.5188 8.17955 11.7278 8.38677C12.1345 8.79026 12.5994 9.04965 13.2095 8.992H15.5339C15.9116 8.96319 16.0859 8.50205 15.8826 8.09858C15.7373 7.81037 15.5339 7.55097 15.3305 7.2916C15.0206 6.92651 14.659 6.58706 14.2974 6.2476Z" fill="white"/>
</svg>
